<?xml version="1.0" encoding="UTF-8" standalone="no"?>
<!-- Created with Inkscape (http://www.inkscape.org/) -->
<svg xmlns:inkscape="http://www.inkscape.org/namespaces/inkscape" xmlns:rdf="http://www.w3.org/1999/02/22-rdf-syntax-ns#" xmlns="http://www.w3.org/2000/svg" xmlns:xlink="http://www.w3.org/1999/xlink" xmlns:ns1="http://sozi.baierouge.fr" xmlns:cc="http://creativecommons.org/ns#" xmlns:sodipodi="http://sodipodi.sourceforge.net/DTD/sodipodi-0.dtd" xmlns:dc="http://purl.org/dc/elements/1.1/" id="svg2" xml:space="preserve" viewBox="0 0 138.72 126.67" version="1.1" inkscape:version="0.91 r13725">
  <defs id="defs6">
    <clipPath id="clipPath18">
      <path id="path20" d="m68.961 5.442c0-1.496-1.922-2.774-5.762-3.84s-8.465-1.602-13.879-1.602-10.039 0.536-13.879 1.602c-3.816 1.066-5.722 2.344-5.722 3.84 0 1.492 1.906 2.773 5.722 3.84 3.84 1.066 8.465 1.597 13.879 1.597s10.039-0.531 13.879-1.597c3.84-1.067 5.762-2.348 5.762-3.84z" inkscape:connector-curvature="0"/>
    </clipPath>
    <clipPath id="clipPath26">
      <path id="path28" d="m-36.7-81.783h50v54.23h-50v-54.23z" inkscape:connector-curvature="0"/>
    </clipPath>
    <radialGradient id="radialGradient30" gradientUnits="userSpaceOnUse" cy="-55.15" cx="-11.275" r="24.514">
      <stop id="stop32" style="stop-color:#ffffff;stop-opacity:.67840" offset="0"/>
      <stop id="stop34" style="stop-color:#ffffff;stop-opacity:.11369" offset=".71760"/>
      <stop id="stop36" style="stop-color:#ffffff;stop-opacity:.11369" offset="1"/>
    </radialGradient>
    <mask id="mask38">
      <g id="g40">
        <g id="g42" clip-path="url(#clipPath26)">
          <path id="path44" style="fill:url(#radialGradient30)" d="m-36.7-81.783h50v54.23h-50v-54.23z" inkscape:connector-curvature="0"/>
        </g>
      </g>
    </mask>
    <radialGradient id="radialGradient48" gradientUnits="userSpaceOnUse" cy="-55.15" cx="-11.275" r="24.514">
      <stop id="stop50" style="stop-color:#000000" offset="0"/>
      <stop id="stop52" style="stop-color:#000000" offset="1"/>
    </radialGradient>
    <linearGradient id="linearGradient134" y2="-16887" gradientUnits="userSpaceOnUse" x2="197.1" gradientTransform="matrix(-.06408 -.79744 .8008 -.022 13583 -164.75)" y1="-16887" x1="185.87">
      <stop id="stop136" style="stop-color:#232916" offset="0"/>
      <stop id="stop138" style="stop-color:#414e20" offset=".98820"/>
      <stop id="stop140" style="stop-color:#414e20" offset="1"/>
    </linearGradient>
    <linearGradient id="linearGradient162" y2="-19273" gradientUnits="userSpaceOnUse" x2="10431" gradientTransform="matrix(-.68736 -.40936 .43992 -.66912 15686 -8560.8)" y1="-19273" x1="10426">
      <stop id="stop164" style="stop-color:#232916" offset="0"/>
      <stop id="stop166" style="stop-color:#414e20" offset=".98820"/>
      <stop id="stop168" style="stop-color:#414e20" offset="1"/>
    </linearGradient>
    <linearGradient id="linearGradient186" y2="-19473" gradientUnits="userSpaceOnUse" x2="6267.7" gradientTransform="matrix(-.468 -.64888 .64888 -.468 15623 -4982.4)" y1="-19473" x1="6260.7">
      <stop id="stop188" style="stop-color:#232916" offset="0"/>
      <stop id="stop190" style="stop-color:#414e20" offset=".98820"/>
      <stop id="stop192" style="stop-color:#414e20" offset="1"/>
    </linearGradient>
  </defs>
  <g id="g10" transform="matrix(1.25 0 0 -1.25 0 126.67)">
    <g id="g12">
      <g id="g14">
        <g id="g16" clip-path="url(#clipPath18)">
          <g id="g22" transform="matrix(.8 0 0 -.22128 58.36 -6.7646)">
            <g id="g46" mask="url(#mask38)">
              <path id="path54" style="fill-rule:evenodd;fill:url(#radialGradient48)" d="m68.961 5.442c0-1.496-1.922-2.774-5.762-3.84s-8.465-1.602-13.879-1.602-10.039 0.536-13.879 1.602c-3.816 1.066-5.722 2.344-5.722 3.84 0 1.492 1.906 2.773 5.722 3.84 3.84 1.066 8.465 1.597 13.879 1.597s10.039-0.531 13.879-1.597c3.84-1.067 5.762-2.348 5.762-3.84z" inkscape:connector-curvature="0"/>
            </g>
          </g>
        </g>
      </g>
      <path id="path56" style="fill-rule:evenodd;fill:#b2c271" d="m33.719 43.719c2.054-0.879 3.469-2.078 4.242-3.598 0.746-1.523 0.945-3.496 0.598-5.921-0.239-1.707-0.946-2.985-2.118-3.84-1.253-0.906-3.066-1.387-5.441-1.442-2.453 0-5.188 0.403-8.199 1.203-3.547 1.012-6.348 2.254-8.403 3.719-0.586 0.481-1.183 1.16-1.796 2.039-1.254 1.785-1.79 3.496-1.602 5.121 0.133 1.575 1.121 2.786 2.961 3.641l2.398 0.719c3.149 0.453 6.426 0.492 9.84 0.121 3.067-0.32 5.574-0.906 7.52-1.762zm4.363-5-0.641 1.52c-0.695 1.093-1.586 1.933-2.679 2.519-2.961 1.574-8.907 2.16-17.84 1.762-1.602-0.215-2.723-0.613-3.363-1.199-0.664-0.586-0.797-1.321-0.399-2.2 0.238-0.667 0.762-1.203 1.559-1.601 0.75-0.399 1.48-0.559 2.203-0.481 2.051 0.321 5.785 0.161 11.199-0.48 4.664-0.531 7.867-1.453 9.598-2.758 0.535 0.746 0.656 1.719 0.363 2.918zm-1-5.078c0.051 0.133 0.106 0.254 0.16 0.359-0.59-0.132-1.203-0.265-1.844-0.402-1.359 0.082-3.25 0.348-5.679 0.801-4.344 0.801-8.84 1.773-13.477 2.922l-1.961 0.238c-0.906-0.184-0.254-1.051 1.961-2.598 5.145-2.242 9.332-3.64 12.559-4.203 2.984-0.531 5.281-0.359 6.879 0.524 1.281 0.718 2.039 1.664 2.281 2.839-0.082-0.214-0.375-0.375-0.879-0.48zm-5.684 1.84c4.055-0.535 6.067-0.68 6.043-0.442-1.199 0.375-2.734 0.774-4.601 1.2-5.172 1.148-10.106 1.773-14.801 1.882 2.586-0.855 7.043-1.734 13.359-2.64z" inkscape:connector-curvature="0"/>
      <path id="path58" style="fill-rule:evenodd;fill:#8b9c6a" d="m35.801 41.2c-1.336 0.961-3.36 1.613-6.082 1.961-2.934 0.398-6.946 0.492-12.039 0.281l-1.399-0.321c4.266-0.32 8.399-0.8 12.399-1.441 5.093-0.828 8.132-1.855 9.121-3.082-0.188 0.961-0.856 1.828-2 2.602zm2.281-2.481c0.293-1.199 0.172-2.172-0.363-2.918-1.731 1.305-4.934 2.227-9.598 2.758-5.414 0.641-9.148 0.801-11.199 0.48-0.723-0.078-1.453 0.082-2.203 0.481-0.797 0.398-1.321 0.934-1.559 1.601-0.398 0.879-0.265 1.614 0.399 2.2 0.64 0.586 1.761 0.984 3.363 1.199 8.933 0.398 14.879-0.188 17.84-1.762 1.093-0.586 1.984-1.426 2.679-2.519l0.641-1.52zm-2.684-5.121c-1.117-0.156-2.332-0.277-3.636-0.359-6.348-0.344-11.574 0.629-15.68 2.922 0.984-0.696 2.891-1.536 5.719-2.52 2.64-0.883 5.039-1.48 7.199-1.801 4.293-0.695 6.988-0.094 8.082 1.801 0.504 0.105 0.797 0.266 0.879 0.48-0.242-1.175-1-2.121-2.281-2.839-1.598-0.883-3.895-1.055-6.879-0.524-3.227 0.563-7.414 1.961-12.559 4.203-2.215 1.547-2.867 2.414-1.961 2.598l1.961-0.238c4.637-1.149 9.133-2.121 13.477-2.922 2.429-0.453 4.32-0.719 5.679-0.801zm-4 1.883c-6.316 0.906-10.773 1.785-13.359 2.64 4.695-0.109 9.629-0.734 14.801-1.882 1.867-0.426 3.402-0.825 4.601-1.2 0.024-0.238-1.988-0.093-6.043 0.442zm-3.199 4.078c5.387-0.719 8.586-1.625 9.602-2.719-0.242 0.668-0.973 1.321-2.199 1.961-2.961 1.492-9.586 2.387-19.883 2.68-1.067-0.266-1.399-0.52-1-0.762 4.961-0.265 9.457-0.652 13.48-1.16z" inkscape:connector-curvature="0"/>
      <path id="path60" style="fill-rule:evenodd;fill:#414e20" d="m35.801 41.2c1.148-0.774 1.812-1.641 2-2.602-0.989 1.227-4.028 2.254-9.121 3.082-4 0.641-8.133 1.121-12.399 1.441l1.399 0.321c5.093 0.211 9.105 0.117 12.039-0.281 2.722-0.348 4.746-1 6.082-1.961z" inkscape:connector-curvature="0"/>
      <path id="path62" style="fill-rule:evenodd;fill:#5c6e37" d="m28.199 39.559c-4.023 0.508-8.519 0.895-13.48 1.16-0.399 0.242-0.067 0.496 1 0.762 10.297-0.293 16.922-1.188 19.883-2.68 1.226-0.64 1.957-1.293 2.199-1.961-1.016 1.094-4.215 2-9.602 2.719z" inkscape:connector-curvature="0"/>
      <path id="path64" style="fill-rule:evenodd;fill:#dceaa9" d="m35.398 33.598c0.641 0.137 1.254 0.27 1.844 0.402-0.054-0.105-0.109-0.226-0.16-0.359-1.094-1.895-3.789-2.496-8.082-1.801-2.16 0.321-4.559 0.918-7.199 1.801-2.828 0.984-4.735 1.824-5.719 2.52 4.106-2.293 9.332-3.266 15.68-2.922 1.304 0.082 2.519 0.203 3.636 0.359z" inkscape:connector-curvature="0"/>
      <path id="path66" style="fill-rule:evenodd;fill:#4d120b" d="m27.801 43.239-0.36 0.84 0.161 6.082c0.773-2.641 1.05-4.68 0.839-6.122-0.16-0.878-0.375-1.144-0.64-0.8zm3.121-0.2 0.16 0.801 3.68 4.641c-0.883-2.402-1.828-4.106-2.84-5.121-0.641-0.641-0.977-0.746-1-0.321zm-4.961-0.839-1.961 6.082 1.281-2.082c0.852-1.52 1.387-2.758 1.598-3.719 0.187-0.906 0.094-1.227-0.277-0.961l-0.641 0.68zm8.641-4 0.679 0.48 6.117 1.199c-2.398-1.226-4.332-1.894-5.796-2-0.961-0.078-1.293 0.028-1 0.321zm0.398-5.282 0.762-0.398 3.398-4.559c-2.078 1.493-3.453 2.84-4.121 4.039-0.453 0.746-0.465 1.055-0.039 0.918zm6.242 2.442c-2.32-0.828-4.176-1.172-5.562-1.039-0.879 0.078-1.172 0.238-0.879 0.48l0.679 0.36 5.762 0.199zm-8.043-5.719 4.403-3.801c-2.348 1.039-4 2.078-4.961 3.121-0.614 0.664-0.696 0.973-0.243 0.918 0.215 0 0.481-0.078 0.801-0.238zm-2.758 4.879 2.957-1.961c-1.597 0.16-2.703 0.547-3.316 1.16-0.402 0.375-0.457 0.602-0.16 0.68 0.133 0.082 0.305 0.121 0.519 0.121zm-1.601-4.32 0.359-0.719-0.277-5.641c-0.668 2.399-0.906 4.281-0.723 5.641 0.16 0.801 0.375 1.039 0.641 0.719zm-13.078 14.839c1.679-0.933 2.906-1.785 3.679-2.558 0.747-0.774 0.852-1.121 0.321-1.039l-0.961 0.277-5.481 4.641 2.442-1.321zm5.078-7.96c0.64-0.348 1.082-0.758 1.32-1.239 0.133-0.426 0.055-0.652-0.238-0.679l-0.524 0.039-1.558 2.359 1-0.48zm-8.84 0.519c1.465-0.531 2.492-1.051 3.082-1.559 0.613-0.531 0.703-0.812 0.277-0.839l-0.757 0.039-4.602 3 2-0.641zm12.719-5.719c-0.879-1.465-2.598-3.414-5.16-5.84l4.562 6.282 0.84 0.64c0.453 0.239 0.371-0.121-0.242-1.082zm-5.879 1.282-8.16-2.84c3.121 1.945 5.679 3.16 7.679 3.64 1.254 0.266 1.696 0.227 1.321-0.121l-0.84-0.679z" inkscape:connector-curvature="0"/>
      <path id="path68" style="fill-rule:evenodd;fill:#414e20" d="m17.961 39.801c-2.43-0.347-4.055-0.414-4.879-0.199-1.066 0.293-1.109 1.078-0.121 2.359 0.906 1.172 2.519 2.172 4.84 3 1.918 0.664 3.238 0.946 3.961 0.84l0.519-0.039c0.321-0.055 0.481-0.215 0.481-0.48 0-0.828-0.282-1.735-0.84-2.723-0.856-1.57-2.176-2.492-3.961-2.758z" inkscape:connector-curvature="0"/>
      <path id="path70" style="fill-rule:evenodd;fill:#8b9c6a" d="m17.801 61.282c0.453-0.961 0.851-2.043 1.199-3.243 1.652-5.277 1.586-9.718-0.199-13.32 0.613 0.906 1.172 2.535 1.679 4.883 0.481 2.344 0.708 4.426 0.68 6.238-0.105 3.84-1.359 6.133-3.762 6.879-0.183 0.453-0.425 0.707-0.718 0.762 1.441-0.082 2.707-0.652 3.8-1.719 1.305-1.308 1.961-3.269 1.961-5.883-0.027-2.8-0.8-6.437-2.32-10.918-1.254-1.922-2.082-2.535-2.48-1.84l-0.121 1.559c0.375 4.641 0.562 8.453 0.562 11.441 0 2.239-0.094 3.958-0.281 5.161zm-2.082 1.597c0.297 0.028 0.547-1.773 0.761-5.398 0.293-5.52 0.227-9.348-0.199-11.481-0.828 3.786-1.148 7.989-0.961 12.602 0.055 1.437 0.188 2.863 0.399 4.277zm-0.278-19.679c-0.265-0.692-0.746-1.172-1.441-1.438-1.785-0.801-3.293 0.039-4.52 2.52-2.558 7.359-3.292 12.425-2.199 15.199 0.399 1.066 1.184 1.984 2.36 2.758l1.64 0.761c1.278 0.399 2.438 0.414 3.481 0.039-1.149-1.707-1.508-4.64-1.082-8.8 0.48-4.692 1.093-7.774 1.84-9.239 0.265-0.558 0.242-1.16-0.079-1.8zm-2.882 10.961c-0.399 4.773-0.079 7.718 0.961 8.839-0.719-0.293-1.321-1.039-1.801-2.238-1.094-2.828-0.637-8.508 1.363-17.043 0.531-0.824 0.879-1.051 1.039-0.68-0.723 3.84-1.242 7.547-1.562 11.122zm-3.719 6.48c-0.774-1.336-1.051-3.176-0.84-5.52 0.242-2.562 1.082-5.921 2.52-10.082l0.679-1.078c-0.613 3.52-1.011 6.973-1.199 10.36-0.215 4.558 0.266 7.375 1.441 8.441-1.066-0.32-1.933-1.027-2.601-2.121z" inkscape:connector-curvature="0"/>
      <path id="path72" style="fill-rule:evenodd;fill:#b2c271" d="m17.398 62.719c-0.132 0.055-0.265 0.094-0.398 0.121 0.266-0.48 0.535-1 0.801-1.558 0.187-1.203 0.281-2.922 0.281-5.161 0-2.988-0.187-6.8-0.562-11.441l0.121-1.559c0.398-0.695 1.226-0.082 2.48 1.84 1.52 4.481 2.293 8.118 2.32 10.918 0 2.614-0.652 4.575-1.961 5.883-1.093 1.067-2.359 1.637-3.8 1.719 0.293-0.055 0.535-0.309 0.718-0.762zm-1.679 0.16c-0.211-1.414-0.344-2.84-0.399-4.277-0.187-4.613 0.133-8.816 0.961-12.602 0.426 2.133 0.492 5.961 0.199 11.481-0.214 3.625-0.464 5.426-0.761 5.398zm5.64-0.277c1.282-0.988 2.172-2.535 2.68-4.641 0.508-2.105 0.563-4.468 0.16-7.082-0.453-2.984-1.293-5.386-2.519-7.199-0.453-0.535-1.078-1.078-1.879-1.641-1.602-1.171-3.336-1.8-5.199-1.878-1.707-0.133-3.227 0.464-4.563 1.8l-1.32 1.758c-1.199 2.293-2.024 4.961-2.477 8-0.375 2.668-0.32 4.906 0.156 6.723 0.536 1.972 1.618 3.398 3.243 4.277 1.601 0.856 3.879 1.281 6.839 1.281 2.028 0 3.653-0.464 4.879-1.398zm-5.918-19.402c0.321 0.64 0.348 1.242 0.079 1.8-0.747 1.465-1.36 4.547-1.84 9.239-0.426 4.16-0.067 7.093 1.082 8.8-1.043 0.375-2.203 0.36-3.481-0.039l-1.64-0.761c-1.176-0.774-1.961-1.692-2.36-2.758-1.093-2.774-0.359-7.84 2.199-15.199 1.227-2.481 2.735-3.321 4.52-2.52 0.695 0.266 1.176 0.746 1.441 1.438z" inkscape:connector-curvature="0"/>
      <path id="path74" style="fill-rule:evenodd;fill:#dceaa9" d="m17.801 61.282c-0.266 0.558-0.535 1.078-0.801 1.558 0.133-0.027 0.266-0.066 0.398-0.121 2.403-0.746 3.657-3.039 3.762-6.879 0.028-1.812-0.199-3.894-0.68-6.238-0.507-2.348-1.066-3.977-1.679-4.883 1.785 3.602 1.851 8.043 0.199 13.32-0.348 1.2-0.746 2.282-1.199 3.243z" inkscape:connector-curvature="0"/>
      <path id="path76" style="fill-rule:evenodd;fill:#414e20" d="m8.84 60.641c0.668 1.094 1.535 1.801 2.601 2.121-1.175-1.066-1.652-3.883-1.441-8.441 0.188-3.387 0.586-6.84 1.199-10.36l-0.679 1.078c-1.438 4.161-2.278 7.52-2.52 10.082-0.215 2.344 0.066 4.184 0.84 5.52z" inkscape:connector-curvature="0"/>
      <path id="path78" style="fill-rule:evenodd;fill:#5c6e37" d="m12.559 54.161c0.32-3.575 0.839-7.282 1.562-11.122-0.16-0.371-0.508-0.144-1.039 0.68-2 8.535-2.457 14.215-1.363 17.043 0.48 1.199 1.082 1.945 1.801 2.238-1.04-1.121-1.36-4.066-0.961-8.839z" inkscape:connector-curvature="0"/>
      <path id="path80" style="fill-rule:evenodd;fill:#4d120b" d="m22.281 60 4.278 4.481c-1.145-2.402-2.317-4.106-3.52-5.121-0.691-0.531-1.039-0.598-1.039-0.199 0.055 0.265 0.148 0.546 0.281 0.839zm-3.121 2.922 5.082 3.399c-1.683-2.133-3.176-3.535-4.48-4.2-0.801-0.375-1.149-0.359-1.043 0.04l0.441 0.761zm-2.519-0.843-0.399 0.761-0.242 6.399c0.879-2.664 1.266-4.746 1.16-6.239-0.027-0.961-0.199-1.265-0.519-0.921zm0.441-5.2c-0.082 0.16-0.121 0.348-0.121 0.563l2.16 2.957c-0.215-1.653-0.641-2.785-1.281-3.399-0.426-0.375-0.68-0.414-0.758-0.121zm5.277-2.078c-0.879 0.211-1.132 0.438-0.757 0.68l0.796 0.359 6.043-0.679c-2.613-0.559-4.64-0.68-6.082-0.36zm-3.961-9.082 2.844-7.797c-1.976 3.012-3.203 5.477-3.683 7.399-0.317 1.199-0.278 1.613 0.121 1.238l0.718-0.84zm0.243 6c-0.243 0.453 0.132 0.36 1.121-0.277 1.597-1.043 3.613-2.856 6.039-5.442l-6.481 4.84c-0.238 0.239-0.465 0.535-0.679 0.879zm-3.082-2.64c0.429 0.109 0.683 0.027 0.761-0.239l-0.078-0.519-2.48-1.36 0.519 0.918c0.453 0.696 0.879 1.094 1.278 1.2zm0.722-6.559-0.039-0.719-3.082-4.121 0.641 1.801c0.531 1.387 1.066 2.32 1.597 2.801 0.508 0.558 0.801 0.64 0.883 0.238zm-6.84 11.402-0.722-0.601-6.477-1.602 2.156 1.16c1.602 0.774 2.934 1.242 4 1.403 0.961 0.105 1.309-0.016 1.043-0.36zm-1.921 1.36-0.879-0.321-6.641 0.559c2.879 0.613 5.094 0.762 6.641 0.441 0.933-0.187 1.226-0.414 0.879-0.679zm4.8 7.597-1.441 6.84c1.414-2.746 2.203-4.933 2.363-6.558 0.133-1.016 0.012-1.372-0.363-1.082l-0.559 0.8zm-4.679-4.359-0.879 0.199-5.321 4.281c2.719-1.121 4.653-2.254 5.801-3.398 0.719-0.723 0.852-1.082 0.399-1.082zm-1.602-15.078c0.934 1.547 1.801 2.679 2.602 3.398 0.773 0.641 1.132 0.719 1.078 0.239l-0.321-0.918-4.636-4.961 1.277 2.242z" inkscape:connector-curvature="0"/>
      <path id="path82" style="fill-rule:evenodd;fill:#414e20" d="m63.121 37.52c0.664 0.508 1.211 0.601 1.641 0.281 1.547-1.043 2.679-2.308 3.398-3.801 1.039-2.16 0.961-4.414-0.238-6.761-1.281-2.504-2.774-2.52-4.481-0.039-1.707 2.398-2.336 4.828-1.882 7.281 0.269 1.414 0.789 2.426 1.562 3.039z" inkscape:connector-curvature="0"/>
      <path id="path84" style="fill-rule:evenodd;fill:#8b9c6a" d="m89.922 41.559c-0.59 1.016-1.656 1.762-3.203 2.242-1.813 0.504-4.184 0.387-7.117-0.359-3.176-0.856-7.243-2.496-12.204-4.922l-1.238-0.961c4.481 1.469 8.774 2.668 12.879 3.602 5.656 1.281 9.281 1.414 10.883 0.398zm0.277 0.242c0.774-1.254 1.043-2.469 0.801-3.64-2.48 0.773-6.266 0.492-11.359-0.84-5.735-1.547-9.493-2.879-11.282-4-0.586-0.403-1.343-0.52-2.277-0.36s-1.629 0.547-2.082 1.16c-1.414 1.653-0.668 3.426 2.242 5.321 4.664 2.316 8.543 3.933 11.637 4.84 2.883 0.851 5.254 1.16 7.121 0.918 1.359-0.188 2.668-0.801 3.922-1.84l1.277-1.559zm0.442-2.359c-0.559 0.719-1.625 1.172-3.2 1.359-1.867 0.238-4.414-0.027-7.64-0.801-3.442-0.828-7.949-2.308-13.52-4.441-0.906-0.746-1.133-1.172-0.679-1.277 4.878 1.703 9.453 3.105 13.718 4.199 5.946 1.492 9.719 1.812 11.321 0.961zm0.32-2.321c0.133-0.296-2.094-0.976-6.68-2.042-7.015-1.547-11.855-2.333-14.519-2.36 4.746 1.735 9.984 3.016 15.718 3.84 1.946 0.266 3.774 0.453 5.481 0.562zm0.16-1.839c0.531 0.316 0.801 0.636 0.801 0.957 0.16-1.547-0.32-3-1.442-4.36-1.386-1.652-3.718-2.773-7-3.359-3.519-0.613-8.265-0.625-14.238-0.039-2.668 0.879-3.617 1.598-2.844 2.16l1.922 0.48c5.973 0.665 10.84 1.333 14.602 2 2.719 0.477 4.84 0.946 6.359 1.399-1.121-0.641-2.375-1.293-3.761-1.961-6.372-2.852-12-3.785-16.879-2.801 1.414-0.426 3.586-0.637 6.519-0.637 2.988 0 5.652 0.239 8 0.719 4.828 0.961 7.481 2.774 7.961 5.442z" inkscape:connector-curvature="0"/>
      <path id="path86" style="fill-rule:evenodd;fill:#5c6e37" d="m90.641 39.442c-1.602 0.851-5.375 0.531-11.321-0.961-4.265-1.094-8.84-2.496-13.718-4.199-0.454 0.105-0.227 0.531 0.679 1.277 5.574 2.133 10.078 3.613 13.52 4.441 3.226 0.774 5.773 1.039 7.64 0.801 1.575-0.187 2.641-0.64 3.2-1.359z" inkscape:connector-curvature="0"/>
      <path id="path88" style="fill-rule:evenodd;fill:#b2c271" d="m92.52 36.598c0.402-2.133 0.132-3.945-0.801-5.437-0.985-1.575-2.758-2.868-5.321-3.879-2.476-0.989-5.437-1.575-8.878-1.762-3.868-0.16-7.067 0.187-9.598 1.039-0.774 0.32-1.59 0.855-2.442 1.602-1.812 1.437-2.96 3.093-3.441 4.96-0.48 1.786-0.023 3.52 1.359 5.2l2 1.8c2.696 1.758 5.895 3.227 9.602 4.399 3.281 1.012 6.105 1.453 8.48 1.32 2.586-0.133 4.602-0.933 6.04-2.398 1.414-1.469 2.414-3.75 3-6.844zm-2.321 5.203-1.277 1.559c-1.254 1.039-2.563 1.652-3.922 1.84-1.867 0.242-4.238-0.067-7.121-0.918-3.094-0.907-6.973-2.524-11.637-4.84-2.91-1.895-3.656-3.668-2.242-5.321 0.453-0.613 1.148-1 2.082-1.16s1.691-0.043 2.277 0.36c1.789 1.121 5.547 2.453 11.282 4 5.093 1.332 8.879 1.613 11.359 0.84 0.242 1.171-0.027 2.386-0.801 3.64zm0.922-6.519c0.027 0.183 0.039 0.359 0.039 0.519-0.586-0.426-1.215-0.855-1.879-1.281-1.519-0.453-3.64-0.922-6.359-1.399-3.762-0.667-8.629-1.335-14.602-2l-1.922-0.48c-0.773-0.562 0.176-1.281 2.844-2.16 5.973-0.586 10.719-0.574 14.238 0.039 3.282 0.586 5.614 1.707 7 3.359 1.122 1.36 1.602 2.813 1.442 4.36 0-0.321-0.27-0.641-0.801-0.957zm-0.16 1.839c-1.707-0.109-3.535-0.296-5.481-0.562-5.734-0.824-10.972-2.105-15.718-3.84 2.664 0.027 7.504 0.813 14.519 2.36 4.586 1.066 6.813 1.746 6.68 2.042z" inkscape:connector-curvature="0"/>
      <path id="path90" style="fill-rule:evenodd;fill:#414e20" d="m89.922 41.559c-1.602 1.016-5.227 0.883-10.883-0.398-4.105-0.934-8.398-2.133-12.879-3.602l1.238 0.961c4.961 2.426 9.028 4.066 12.204 4.922 2.933 0.746 5.304 0.863 7.117 0.359 1.547-0.48 2.613-1.226 3.203-2.242z" inkscape:connector-curvature="0"/>
      <path id="path92" style="fill-rule:evenodd;fill:#dceaa9" d="m91.121 35.282c-0.48-2.668-3.133-4.481-7.961-5.442-2.348-0.48-5.012-0.719-8-0.719-2.933 0-5.105 0.211-6.519 0.637 4.879-0.984 10.507-0.051 16.879 2.801 1.386 0.668 2.64 1.32 3.761 1.961 0.664 0.426 1.293 0.855 1.879 1.281 0-0.16-0.012-0.336-0.039-0.519z" inkscape:connector-curvature="0"/>
      <path id="path94" style="fill-rule:evenodd;fill:#4d120b" d="m82.719 52c0-3.336-0.332-5.8-1-7.402-0.426-1.066-0.731-1.344-0.918-0.84l-0.16 1.043 2.078 7.199zm4.441-11.441 6.281 4.199c-2.16-2.558-4.027-4.25-5.601-5.078-0.985-0.508-1.399-0.519-1.238-0.039l0.558 0.918zm7.922-1.359c-2.16-1.946-4.082-3.188-5.762-3.719-0.988-0.293-1.375-0.227-1.16 0.199l0.602 0.719 6.32 2.801zm-7.602-10.282c0.215 0.082 0.536 0.094 0.961 0.043l6.321-2.761c-2.934 0.32-5.149 0.894-6.641 1.718-0.855 0.508-1.066 0.84-0.641 1zm2.602 4.442 5.559-4c-2.879 0.988-4.922 2.015-6.121 3.082-0.719 0.719-0.852 1.078-0.399 1.078 0.293 0 0.613-0.055 0.961-0.16zm-5.801-6.16 1.879-6.602c-1.68 2.563-2.652 4.629-2.918 6.203-0.16 0.985-0.043 1.344 0.36 1.078 0.183-0.078 0.414-0.304 0.679-0.679zm-5.519 1.039c-0.375-2.16-1.364-4.973-2.961-8.438l2.199 8.719c0.215 0.508 0.414 0.855 0.602 1.039 0.343 0.48 0.398 0.039 0.16-1.32zm4.359 4.961c0.078 0.105 0.254 0.226 0.52 0.359l3.879-1.117c-1.708-0.453-3.028-0.453-3.961 0-0.559 0.293-0.704 0.543-0.438 0.758zm-13.68 4.961c1.012-0.563 1.254-0.922 0.719-1.082l-1.039-0.04-6.961 2.961 2.762-0.441c2.023-0.398 3.531-0.867 4.519-1.398zm8.039 4.437-0.679 0.801-2.242 7.199c1.839-2.773 2.921-5.039 3.242-6.797 0.238-1.094 0.133-1.496-0.321-1.203zm-0.64-1.316c0.586-0.989 0.613-1.403 0.082-1.243l-0.922 0.559-4.32 6.203 2.082-1.84c1.492-1.468 2.519-2.695 3.078-3.679zm-2.68-10.524-2.441 2.043 1.16-0.203c0.855-0.156 1.441-0.437 1.762-0.84 0.32-0.398 0.332-0.703 0.039-0.918l-0.52-0.082zm-1.16-2.238-0.559-1.078-6.679-6.043c2.238 3.226 4.211 5.48 5.918 6.762 1.093 0.851 1.535 0.972 1.32 0.359zm-5.281 0.719c0.801-0.321 1-0.598 0.601-0.84l-0.761-0.199-5.399 1.601h2.082c1.52 0 2.68-0.187 3.477-0.562z" inkscape:connector-curvature="0"/>
      <path id="path96" style="fill-rule:evenodd;fill:#414e20" d="m89 35.442c-1.918 0.476-3.465 1.664-4.641 3.558-0.851 1.36-0.757 2.321 0.282 2.879 0.586 0.321 1.347 0.481 2.281 0.481 0.211 0 1.558-0.039 4.039-0.121 2.238-0.504 3.027-1.852 2.359-4.039-0.718-2.375-2.16-3.293-4.32-2.758z" inkscape:connector-curvature="0"/>
      <path id="path98" style="fill-rule:evenodd;fill:#b2c271" d="m97.52 60.2c-0.133 0.082-0.278 0.16-0.438 0.242 0.184-0.563 0.344-1.16 0.477-1.801-0.106-1.309-0.465-3.133-1.079-5.48-0.8-3.094-2.039-7.04-3.718-11.84l-0.282-1.68c0.215-0.828 1.266-0.402 3.161 1.277 2.906 4.297 4.746 7.895 5.519 10.801 0.719 2.695 0.535 4.906-0.558 6.641-0.856 1.414-2.082 2.359-3.68 2.84 0.32-0.133 0.519-0.465 0.598-1zm-1.801 0.64c-0.531-1.148-1.067-2.601-1.598-4.359-1.441-4.641-2.242-9.121-2.402-13.442 1.093 2.161 2.215 6.133 3.363 11.922 0.773 3.918 0.984 5.879 0.637 5.879zm7.801-7.441c-0.055-2.293-0.641-4.774-1.758-7.438-1.336-2.988-2.922-5.269-4.762-6.84-0.586-0.402-1.414-0.8-2.48-1.203-2.161-0.769-4.227-0.945-6.2-0.519-1.894 0.347-3.398 1.387-4.519 3.121l-0.961 2.238c-0.664 2.668-0.852 5.684-0.559 9.043 0.321 2.879 0.985 5.199 2 6.957 1.117 1.895 2.692 3.082 4.719 3.563 1.973 0.48 4.586 0.304 7.84-0.52 2.215-0.562 3.867-1.508 4.961-2.84 1.144-1.359 1.719-3.215 1.719-5.562zm-12.641 8.801-2.039-0.36c-1.465-0.48-2.574-1.215-3.32-2.199-0.961-1.309-1.586-3.227-1.879-5.762-0.293-2.691-0.243-6.277 0.16-10.758 0.691-2.96 2.133-4.253 4.32-3.882 0.801 0.109 1.453 0.48 1.961 1.121 0.504 0.64 0.68 1.254 0.52 1.84-0.403 1.921-0.227 5.308 0.519 10.16 0.664 4.426 1.867 7.398 3.598 8.922-1.039 0.691-2.321 1-3.84 0.918z" inkscape:connector-curvature="0"/>
      <path id="path100" style="fill-rule:evenodd;fill:#8b9c6a" d="m97.559 58.641c0.214-1.121 0.363-2.375 0.441-3.762 0.348-5.972-0.934-10.597-3.84-13.879 0.879 0.746 1.934 2.293 3.16 4.641 1.145 2.238 1.961 4.359 2.442 6.359 0.957 4.028 0.211 6.758-2.242 8.2-0.079 0.535-0.278 0.867-0.598 1 1.598-0.481 2.824-1.426 3.68-2.84 1.093-1.735 1.277-3.946 0.558-6.641-0.773-2.906-2.613-6.504-5.519-10.801-1.895-1.679-2.946-2.105-3.161-1.277l0.282 1.68c1.679 4.8 2.918 8.746 3.718 11.84 0.614 2.347 0.973 4.171 1.079 5.48zm-1.84 2.199c0.347 0 0.136-1.961-0.637-5.879-1.148-5.789-2.27-9.761-3.363-11.922 0.16 4.321 0.961 8.801 2.402 13.442 0.531 1.758 1.067 3.211 1.598 4.359zm-4.84 1.36c1.519 0.082 2.801-0.227 3.84-0.918-1.731-1.524-2.934-4.496-3.598-8.922-0.746-4.852-0.922-8.239-0.519-10.16 0.16-0.586-0.016-1.2-0.52-1.84-0.508-0.641-1.16-1.012-1.961-1.121-2.187-0.371-3.629 0.922-4.32 3.882-0.403 4.481-0.453 8.067-0.16 10.758 0.293 2.535 0.918 4.453 1.879 5.762 0.746 0.984 1.855 1.719 3.32 2.199l2.039 0.36zm-0.117-2.481c-0.961-1.332-1.696-3.371-2.203-6.117-0.532-2.934-0.852-6.949-0.957-12.043 0.343-0.984 0.664-1.32 0.957-1 0.269 4.562 0.707 8.586 1.32 12.082 0.828 5.094 1.976 8.066 3.441 8.918-0.879-0.133-1.734-0.746-2.558-1.84zm-3.203 0.641c-1.2-1.149-2-2.985-2.399-5.52-0.426-2.746-0.426-6.492 0-11.238l0.442-1.32c0.293 3.703 0.796 7.437 1.519 11.199 0.984 4.801 2.277 7.598 3.879 8.398-1.281-0.054-2.426-0.558-3.441-1.519z" inkscape:connector-curvature="0"/>
      <path id="path102" style="fill-rule:evenodd;fill:#dceaa9" d="m97.52 60.2c2.453-1.442 3.2-4.172 2.242-8.2-0.481-2-1.297-4.121-2.442-6.359-1.226-2.348-2.281-3.895-3.16-4.641 2.906 3.282 4.188 7.907 3.84 13.879-0.078 1.387-0.227 2.641-0.441 3.762-0.133 0.641-0.293 1.238-0.477 1.801 0.16-0.082 0.305-0.16 0.438-0.242z" inkscape:connector-curvature="0"/>
      <path id="path104" style="fill-rule:evenodd;fill:#414e20" d="m87.559 60.36c1.015 0.961 2.16 1.465 3.441 1.519-1.602-0.8-2.895-3.597-3.879-8.398-0.723-3.762-1.226-7.496-1.519-11.199l-0.442 1.32c-0.426 4.746-0.426 8.492 0 11.238 0.399 2.535 1.199 4.375 2.399 5.52z" inkscape:connector-curvature="0"/>
      <path id="path106" style="fill-rule:evenodd;fill:#5c6e37" d="m90.762 59.719c0.824 1.094 1.679 1.707 2.558 1.84-1.465-0.852-2.613-3.824-3.441-8.918-0.613-3.496-1.051-7.52-1.32-12.082-0.293-0.32-0.614 0.016-0.957 1 0.105 5.094 0.425 9.109 0.957 12.043 0.507 2.746 1.242 4.785 2.203 6.117z" inkscape:connector-curvature="0"/>
      <path id="path108" style="fill-rule:evenodd;fill:#4d120b" d="m93.082 61.84c-0.16-1.121-0.387-1.465-0.684-1.039l-0.398 1 0.281 7.52c0.774-3.282 1.039-5.774 0.801-7.481zm5.68-4.48c-0.641-1.653-1.414-2.735-2.321-3.239-0.535-0.269-0.828-0.242-0.882 0.079-0.051 0.214-0.039 0.425 0.043 0.64l3.16 2.52zm-2.242 2.398-0.239 0.922 1.438 6.719c0.297-3.012 0.176-5.278-0.36-6.797-0.343-1.016-0.625-1.297-0.839-0.844zm3 0.203 6.48 2.16c-2.375-1.734-4.398-2.789-6.078-3.16-1.016-0.215-1.375-0.109-1.082 0.321 0.082 0.105 0.308 0.332 0.68 0.679zm8.519-0.402c-2.023-2.293-3.785-3.746-5.277-4.359-0.961-0.454-1.348-0.442-1.16 0.039 0.078 0.215 0.25 0.48 0.519 0.8l5.918 3.52zm-6.918-7.918 6.438-2.32c-3.039 0.133-5.278 0.547-6.719 1.238-0.934 0.453-1.16 0.762-0.68 0.922 0.215 0.105 0.535 0.16 0.961 0.16zm-8.801-6.121-3.078-0.801 0.797 0.84c0.641 0.562 1.227 0.867 1.762 0.922 0.531 0 0.773-0.16 0.719-0.481l-0.2-0.48zm1.681-3.359 0.961-8.922c-1.281 3.601-1.945 6.507-2 8.722-0.027 1.332 0.133 1.758 0.48 1.278l0.559-1.078zm3.039 5.597c1.52-1.547 3.227-3.984 5.121-7.316l-5.762 6.84c-0.265 0.453-0.437 0.824-0.519 1.117-0.16 0.562 0.226 0.347 1.16-0.641zm-20.598 9.723c3.36-0.16 5.825-0.613 7.399-1.36 1.039-0.48 1.308-0.8 0.801-0.96l-1.039-0.082-7.161 2.402zm4.161-4c2.16 0.371 3.73 0.492 4.718 0.359 1.121-0.105 1.481-0.32 1.078-0.64l-0.957-0.442-7.562 0.121 2.723 0.602zm5.078 5-0.918 0.48-4.68 5.957c2.746-2 4.559-3.73 5.438-5.199 0.613-0.961 0.668-1.371 0.16-1.238zm-1.438-13.36-6.441-3.921 2 1.961c1.492 1.414 2.746 2.359 3.758 2.839 1.066 0.481 1.496 0.481 1.281 0l-0.598-0.879zm6.317-6.48-4.477-3.441 1.199 1.718c0.934 1.254 1.758 2.082 2.481 2.481 0.746 0.453 1.093 0.453 1.039 0l-0.242-0.758z" inkscape:connector-curvature="0"/>
      <path id="path110" style="fill-rule:evenodd;fill:#b2c271" d="m69.961 76.2c2.344-6.399 3.039-15.133 2.078-26.2-0.719-8.187-2.305-16.265-4.758-24.238-2.215-7.203-4.601-12.617-7.16-16.242l-3.16-2.84c-2.535-1.867-5.055-2.812-7.563-2.84-2.449 0-4.679 1.215-6.679 3.641l-2.278 3.68c-2.425 5.441-4.546 12.441-6.359 21-2.055 9.894-3 18.96-2.844 27.199 0.215 10.215 2.16 17.84 5.844 22.879 4.559 6.242 11.531 8.148 20.918 5.722 5.602-1.414 9.586-5.336 11.961-11.761z" inkscape:connector-curvature="0"/>
      <path id="path112" style="fill-rule:evenodd;fill:#8b9c6a" d="m60.121 78.239c-0.293 3.254-0.879 5.175-1.762 5.761 3.922-1.601 6.84-6.054 8.762-13.359 1.867-7.148 2.027-15.68 0.481-25.602-1.52-9.785-4.653-20.707-9.403-32.757-2.238-3.602-3.586-4.723-4.039-3.364v3.082c1.52 9.895 2.906 20.774 4.16 32.641 1.039 9.68 1.668 17.574 1.879 23.68l-0.078 9.918zm-7.32 4.121c-3.387-10.239-4.735-24.762-4.039-43.559 0.558-13.734 1.359-22.347 2.398-25.84 0.375-1.148 0.281-2.347-0.281-3.601-0.504-1.227-1.254-2.094-2.238-2.602-2.559-1.277-4.922 0.535-7.082 5.442-6.934 22.105-9.797 39.546-8.598 52.32 0.531 5.973 2.254 11.105 5.16 15.398l1.238 1.481c1.067 1.148 2.161 2.082 3.282 2.801 3.734 2.242 7.121 1.625 10.16-1.84z" inkscape:connector-curvature="0"/>
      <path id="path114" style="fill-rule:evenodd;fill:#dceaa9" d="m65.199 66.121c0.934-6.214 0.707-14.093-0.679-23.64-0.934-6.481-2.344-12.988-4.239-19.52-1.574-5.496-2.949-9.16-4.121-11 4.028 8.211 5.719 21.653 5.082 40.321-0.187 5.625-0.535 11-1.043 16.117-0.371 3.789-0.812 7.441-1.32 10.961 0.43-0.348 0.84-0.719 1.242-1.121 2.559-2.664 4.254-6.707 5.078-12.118z" inkscape:connector-curvature="0"/>
      <path id="path116" style="fill-rule:evenodd;fill:#414e20" d="m42.961 82.161c-3.039-6.055-3.68-19.801-1.922-41.243 0.906-10.746 2.055-20.531 3.441-29.359l-1.121 2.52c-7.254 25.148-9.547 43.988-6.879 56.519 0.879 4.055 2.227 7.188 4.04 9.402 0.933 1.121 1.746 1.84 2.441 2.161z" inkscape:connector-curvature="0"/>
      <path id="path118" style="fill-rule:evenodd;fill:#5c6e37" d="m49.199 82.598c-2.933-6.504-3.851-21.051-2.758-43.637 0.532-10.695 1.332-20.613 2.399-29.761-0.078-0.161-0.199-0.227-0.36-0.2-0.32 0.079-0.718 0.625-1.199 1.641-4.187 25.492-5.176 45.051-2.961 58.68 1.172 7.254 2.801 11.679 4.879 13.277z" inkscape:connector-curvature="0"/>
      <path id="path120" style="fill-rule:evenodd;fill:#8b9c6a" d="m55.359 50.641c-0.8-18.695-1.757-30.586-2.879-35.68-0.878 10.16-0.679 23.918 0.602 41.278 0.691 9.386 1.465 17.496 2.316 24.32 0.856 0.16 0.844-9.813-0.039-29.918z" inkscape:connector-curvature="0"/>
      <path id="path122" style="fill-rule:evenodd;fill:#4d120b" d="m57.039 83.039c-0.906-0.984-1.32-1.187-1.238-0.597l0.359 1.156 5.481 7.121c-1.602-3.598-3.133-6.16-4.602-7.68zm8.121-6.878c1.602 1.437 4.121 3.039 7.559 4.8l-7.117-5.441c-0.348-0.215-0.723-0.375-1.122-0.481-0.535-0.132-0.304 0.243 0.68 1.122zm2.52-8.922c0.187 0.269 0.508 0.519 0.961 0.761l8.64 2.52c-3.441-1.945-6.187-3.133-8.242-3.559-1.332-0.242-1.785-0.148-1.359 0.278zm-5.239 3.441 2.161 0.84c-0.321-1.039-0.801-1.602-1.442-1.68-0.398 0-0.64 0.133-0.719 0.399v0.441zm8.161-14.961c1.093 0.242 2.613-0.066 4.558-0.918l-4.64-0.121c-0.266 0.133-0.454 0.266-0.559 0.399-0.266 0.296-0.055 0.507 0.641 0.64zm-7.122 1.281c-1.039 0.079-1.386 0.282-1.039 0.598 0.133 0.137 0.426 0.297 0.879 0.481l7.16 0.402c-2.933-1.067-5.265-1.563-7-1.481zm-15.519 35.52 0.32-3.359c0.184-2.426 0.16-4.309-0.082-5.641-0.238-1.305-0.492-1.707-0.758-1.199l-0.32 1.199 0.84 9zm-7.199-1.961c0.824-1.598 1.304-2.906 1.437-3.918 0.16-0.961 0.043-1.32-0.359-1.082l-0.641 0.68-1.64 6.48 1.203-2.16zm-10.68-16.961c2.559-0.238 4.41-0.586 5.559-1.039 1.226-0.426 1.558-0.746 1-0.961l-1.2-0.078-8.679 2.32 3.32-0.242zm-4.082-16.039c2.453 0.266 4.332 0.309 5.641 0.121 1.281-0.215 1.679-0.453 1.199-0.719-0.238-0.109-0.625-0.226-1.16-0.363l-8.961 0.481 3.281 0.48zm8.68 4.402c-0.078-0.136-0.239-0.254-0.481-0.363l-3.758 0.523 1.36 0.477c0.984 0.27 1.758 0.309 2.32 0.121 0.559-0.211 0.746-0.465 0.559-0.758zm8.039 0.957c1.308 0.348 2.375 0.481 3.203 0.403 0.773-0.133 1.039-0.348 0.797-0.641l-0.637-0.48-5.16 0.082 1.797 0.636zm10.722-25.519 0.52 0.359 4.078-0.476c-1.68-0.723-3.012-0.922-4-0.602-0.586 0.188-0.785 0.426-0.598 0.719zm-14.519 3.84c0.476 0.293 1.105 0.613 1.879 0.961 1.465 0.668 2.625 1.015 3.48 1.039 0.852 0 1.16-0.172 0.918-0.52-0.105-0.16-0.32-0.332-0.64-0.519l-5.637-0.961zm-1.121-5.957c1.039-0.082 1.387-0.282 1.039-0.602-0.078-0.082-0.375-0.254-0.879-0.519l-7.039-0.403 2.476 0.801c1.922 0.508 3.387 0.746 4.403 0.723zm-1.879 7.519c1.066-0.055 1.41-0.254 1.039-0.601-0.266-0.215-0.547-0.36-0.84-0.442l-7.082-0.398 2.481 0.801c2 0.503 3.468 0.718 4.402 0.64zm-0.402-22.242c1.601 0.906 2.906 1.441 3.921 1.602 1.039 0.187 1.414 0.054 1.118-0.403-0.161-0.238-0.399-0.437-0.719-0.597l-6.481-1.879 2.161 1.277zm19.562 7.121 6.68-2.68c-3.121 0.266-5.442 0.786-6.961 1.559-0.906 0.508-1.133 0.84-0.68 1 0.16 0.082 0.481 0.121 0.961 0.121zm-10.723 2.121c0.883 0.106 1.2-0.027 0.961-0.402-0.078-0.133-0.265-0.332-0.558-0.598l-5.563-1.441 1.801 1.121c1.414 0.801 2.535 1.238 3.359 1.32zm8.243-14.64 0.679 0.199 4.36-2c-2.106 0-3.653 0.304-4.641 0.922-0.586 0.425-0.719 0.718-0.398 0.879zm4.796 29.398c-0.957 0.32-1.238 0.602-0.839 0.84l0.961 0.242 7-1.52c-3.172-0.242-5.547-0.093-7.122 0.438zm5.481-25.879c-0.906 0.481-1.133 0.813-0.68 1 0.242 0.051 0.574 0.051 1 0l6.602-2.719c-3.121 0.321-5.426 0.891-6.922 1.719z" inkscape:connector-curvature="0"/>
      <g id="g124">
        <g id="g126">
          <g id="g132">
            <path id="path142" style="fill-rule:evenodd;fill:url(#linearGradient134)" d="m33.52 56.84c-0.133 0.535 0 0.934 0.402 1.199 0.023 0.055 0.066 0.094 0.117 0.122 0.402 0.293 1.281 0.691 2.641 1.199l0.718 0.121c0.055-0.508 0.067-0.813 0.043-0.922 0-0.32 0.079-0.48 0.239-0.48l1.718 0.082c0.188 0 0.387 0.039 0.602 0.121 0.188 0.05 0.375 0.144 0.559 0.277 0.109 0.027 0.214 0.48 0.32 1.359h0.16c0.133 0 0.266 0.016 0.402 0.043 3.547 0.321 6.625 0.36 9.239 0.118l-0.2-1.399c0-0.293 0.188-0.465 0.559-0.519 0.856-0.133 1.52-0.2 2-0.2l1.121 0.078 0.442 1.68v0.043c0.05-0.027 0.117-0.043 0.199-0.043 3.387-0.664 5.504-1.211 6.359-1.64 0.879-0.426 1.399-0.786 1.559-1.079 0.136-0.265 0.203-0.507 0.203-0.718v-0.282c-0.027-0.265-0.176-0.535-0.442-0.8l-0.16-0.161c-0.054-0.027-0.093-0.054-0.121-0.078l-0.437-0.281c-0.907-0.375-1.883-0.613-2.922-0.719-1.227-0.16-2.481-0.242-3.758-0.242-1.121-0.027-2.27-0.051-3.441-0.078-1.282-0.027-2.559 0-3.84 0.078-0.133 0.027-0.254 0.043-0.36 0.043-0.082 0.024-0.148 0.039-0.203 0.039 0 0.719-0.156 1.438-0.476 2.16-0.907 0.051-1.84 0.024-2.801-0.082l-0.199-0.277c-0.055-0.27-0.067-0.762-0.043-1.481v-0.082h-1.117c-2.161-0.054-4.204 0.176-6.122 0.68-1.492 0.426-2.32 0.789-2.48 1.082-0.266 0.453-0.426 0.801-0.48 1.039z" inkscape:connector-curvature="0"/>
          </g>
        </g>
      </g>
      <path id="path144" style="fill-rule:evenodd;fill:#b2c271" d="m46.082 55.481-2.32 0.121 0.199 0.316c0.961 0.082 1.894 0.082 2.801 0 0.32-0.691 0.476-1.41 0.476-2.156h0.563c1.281-0.109 2.558-0.148 3.84-0.121 1.171 0 2.32 0.012 3.441 0.039 1.277 0.027 2.531 0.106 3.758 0.238 1.039 0.11 2.015 0.375 2.922 0.801-0.907-0.453-1.867-0.824-2.883-1.117-1.067-0.297-2.199-0.441-3.399-0.441-1.253-0.028-2.48-0.055-3.679-0.082-1.254-0.106-2.496-0.118-3.719-0.04-0.562 0.055-1.109 0.094-1.641 0.122 0 0.8-0.121 1.574-0.359 2.32zm-12.16 2.598c-0.402-0.317-0.535-0.731-0.402-1.239 0.054-0.238 0.214-0.574 0.48-1 0.16-0.32 0.988-0.695 2.48-1.121 1.918-0.531 3.961-0.773 6.122-0.719l1.078 0.039c0.027-0.187 0.027-0.359 0-0.519-0.481 0-1.094 0.016-1.84 0.039-2.16-0.051-4.16 0.215-6 0.801-1.442 0.402-2.254 0.773-2.442 1.121-0.265 0.426-0.425 0.773-0.476 1.039-0.137 0.535 0.039 0.961 0.519 1.281 0.079 0.051 0.239 0.145 0.481 0.278z" inkscape:connector-curvature="0"/>
      <path id="path146" style="fill-rule:evenodd;fill:#cfe08a" d="m54.559 59.762c0.16 0 0.32-0.043 0.48-0.121l-0.398-1.602h-0.52l-0.039-0.039v0.039l0.477 1.723z" inkscape:connector-curvature="0"/>
      <path id="path148" style="fill-rule:evenodd;fill:#b2c271" d="m40.281 59.879c0.184 0.028 0.387 0.039 0.598 0.039-0.078-1.011-0.184-1.586-0.32-1.718-0.161-0.106-0.332-0.133-0.52-0.079 0.082 0.797 0.16 1.387 0.242 1.758z" inkscape:connector-curvature="0"/>
      <path id="path150" style="fill-rule:evenodd;fill:#8b9c6a" d="m40.16 65.84c0.188 0.934 0.055 1.735-0.398 2.399-0.481 0.668-1.11 0.882-1.883 0.64-0.774-0.215-1.359-0.437-1.758-0.679-0.426-0.239-0.723-0.746-0.879-1.52-0.187-0.746-0.109-1.519 0.238-2.32 0.372-0.801 0.895-1.281 1.559-1.442 0.695-0.16 1.336 0.043 1.922 0.602 0.613 0.559 1.012 1.332 1.199 2.32zm0.281-1.398c-0.265-0.59-0.64-1.094-1.121-1.524-0.375-0.32-0.761-0.531-1.16-0.636-0.371-0.11-0.773-0.11-1.199 0-0.613 0.132-1.106 0.449-1.481 0.957-0.16 0.215-0.304 0.441-0.441 0.679-0.453 0.934-0.559 1.883-0.32 2.84 0.215 0.961 0.707 1.684 1.48 2.16 0.746 0.508 1.52 0.789 2.321 0.84 0.773 0.082 1.386-0.332 1.839-1.238s0.575-1.906 0.36-3c-0.051-0.375-0.145-0.734-0.278-1.078z" inkscape:connector-curvature="0"/>
      <g id="g152">
        <g id="g154">
          <g id="g160">
            <path id="path170" style="fill-rule:evenodd;fill:url(#linearGradient162)" d="m40.16 65.84c-0.187-0.988-0.586-1.761-1.199-2.32-0.586-0.559-1.227-0.762-1.922-0.602-0.664 0.161-1.184 0.641-1.559 1.442-0.347 0.801-0.425 1.574-0.238 2.32 0.156 0.774 0.453 1.281 0.879 1.52 0.399 0.242 0.984 0.464 1.758 0.679 0.773 0.242 1.402 0.028 1.883-0.64 0.453-0.664 0.586-1.465 0.398-2.399z" inkscape:connector-curvature="0"/>
          </g>
        </g>
      </g>
      <path id="path172" style="fill-rule:evenodd;fill:#414e20" d="m35.48 63.239c0.372-0.504 0.868-0.825 1.481-0.957 0.426-0.11 0.828-0.11 1.199 0 0.399 0.105 0.785 0.316 1.16 0.636 0.481 0.43 0.856 0.934 1.121 1.524l0.039-0.481c0-0.347-0.027-0.656-0.082-0.922l-0.199-0.679c-0.984-0.985-2.051-1.188-3.199-0.602-0.32 0.137-0.613 0.227-0.879 0.281l-0.641 1.2z" inkscape:connector-curvature="0"/>
      <path id="path174" style="fill-rule:evenodd;fill:#b2c271" d="m58.641 67.442c-0.586 0.183-1.309 0.437-2.161 0.758-0.855 0.32-1.546 0.214-2.082-0.321-0.531-0.531-0.796-1.32-0.796-2.359 0-1.066 0.293-1.988 0.878-2.762 0.559-0.746 1.254-1.117 2.079-1.117 0.8 0 1.496 0.371 2.082 1.117 0.558 0.774 0.839 1.696 0.839 2.762 0 1.094-0.281 1.734-0.839 1.922zm1.238-4.281c-0.184-0.403-0.414-0.774-0.68-1.122-0.801-0.984-1.746-1.48-2.84-1.48h-0.238c-0.988 0.082-1.855 0.574-2.601 1.48-0.106 0.133-0.2 0.254-0.282 0.36-0.586 0.906-0.879 1.961-0.879 3.16 0 1.336 0.426 2.414 1.282 3.242 0.851 0.824 1.773 1.117 2.757 0.879 0.989-0.238 1.895-0.641 2.723-1.199 0.824-0.535 1.238-1.508 1.238-2.922 0-0.879-0.16-1.68-0.48-2.398z" inkscape:connector-curvature="0"/>
      <g id="g176">
        <g id="g178">
          <g id="g184">
            <path id="path194" style="fill-rule:evenodd;fill:url(#linearGradient186)" d="m58.641 67.442c0.558-0.188 0.839-0.828 0.839-1.922 0-1.066-0.281-1.988-0.839-2.762-0.586-0.746-1.282-1.117-2.082-1.117-0.825 0-1.52 0.371-2.079 1.117-0.585 0.774-0.878 1.696-0.878 2.762 0 1.039 0.265 1.828 0.796 2.359 0.536 0.535 1.231 0.641 2.082 0.321 0.852-0.321 1.575-0.575 2.161-0.758z" inkscape:connector-curvature="0"/>
          </g>
        </g>
      </g>
      <path id="path196" style="fill-rule:evenodd;fill:#8b9c6a" d="m59.879 63.161c-0.133-0.641-0.359-1.293-0.68-1.961-0.265-0.641-0.531-1.039-0.801-1.2-0.984-0.48-1.945-0.507-2.878-0.082-0.852 0.481-1.504 1.082-1.961 1.801-0.133 0.242-0.239 0.469-0.321 0.68 0.082-0.106 0.176-0.227 0.282-0.36 0.746-0.906 1.613-1.398 2.601-1.48h0.238c1.094 0 2.039 0.496 2.84 1.48 0.266 0.348 0.496 0.719 0.68 1.122z" inkscape:connector-curvature="0"/>
    </g>
  </g>
<metadata><rdf:RDF><cc:Work><dc:format>image/svg+xml</dc:format><dc:type rdf:resource="http://purl.org/dc/dcmitype/StillImage"/><cc:license rdf:resource="http://creativecommons.org/licenses/publicdomain/"/><dc:publisher><cc:Agent rdf:about="http://openclipart.org/"><dc:title>Openclipart</dc:title></cc:Agent></dc:publisher></cc:Work><cc:License rdf:about="http://creativecommons.org/licenses/publicdomain/"><cc:permits rdf:resource="http://creativecommons.org/ns#Reproduction"/><cc:permits rdf:resource="http://creativecommons.org/ns#Distribution"/><cc:permits rdf:resource="http://creativecommons.org/ns#DerivativeWorks"/></cc:License></rdf:RDF></metadata></svg>
