<?xml version="1.0" encoding="UTF-8" standalone="no"?>
<!-- Created with Inkscape (http://www.inkscape.org/) -->
<svg xmlns:dc="http://purl.org/dc/elements/1.1/" xmlns:cc="http://creativecommons.org/ns#" xmlns:rdf="http://www.w3.org/1999/02/22-rdf-syntax-ns#" xmlns:svg="http://www.w3.org/2000/svg" xmlns="http://www.w3.org/2000/svg" xmlns:sodipodi="http://sodipodi.sourceforge.net/DTD/sodipodi-0.dtd" xmlns:inkscape="http://www.inkscape.org/namespaces/inkscape" id="svg2" version="1.1" inkscape:version="0.91pre2 r13516" viewBox="0 0 744.09447 1052.3622" sodipodi:docname="Penguin.svg" inkscape:export-filename="C:\Users\giftzwerg\Desktop\Pillou.png" inkscape:export-xdpi="89" inkscape:export-ydpi="89">
  <defs id="defs4"/>
  <sodipodi:namedview id="base" pagecolor="#ffffff" bordercolor="#666666" borderopacity="1.0" inkscape:pageopacity="1" inkscape:pageshadow="2" inkscape:zoom="0.175" inkscape:cx="-777.27687" inkscape:cy="1252.9567" inkscape:document-units="px" inkscape:current-layer="layer1" showgrid="false" showguides="true" inkscape:guide-bbox="true" inkscape:window-width="1280" inkscape:window-height="974" inkscape:window-x="-8" inkscape:window-y="-8" inkscape:window-maximized="1"/>
  <metadata id="metadata7">
    <rdf:RDF>
      <cc:Work rdf:about="">
        <dc:format>image/svg+xml</dc:format>
        <dc:type rdf:resource="http://purl.org/dc/dcmitype/StillImage"/>
        <dc:title/>
      </cc:Work>
    </rdf:RDF>
  </metadata>
  <g inkscape:label="Ebene 1" inkscape:groupmode="layer" id="layer1">
    <path inkscape:connector-curvature="0" id="path3398" d="m 240.305,830.61454 c -10.01915,-12.40497 -40.79941,6.65357 -46.70993,-9.36796 -7.29812,-19.78293 24.05035,-20.51036 31.10637,-20.26657 -32.66006,-40.30363 -68.41268,-51.46538 -75.00204,-97.9873 -10.56352,-74.58051 40.35018,-132.84934 67.87045,-157.16337 1.92489,-1.81532 -0.41088,-4.7437 -2.53829,-3.16267 -37.11325,27.58184 -67.57562,74.58592 -73.40033,128.10671 -0.91623,8.41958 -7.885,12.05451 -10.18524,12.67689 -4.26528,1.15406 -4.30868,-5.77618 -4.43294,-9.16857 -1.72181,-47.00455 -1.64512,-73.94662 3.83798,-99.90536 7.76658,-42.93251 37.51378,-75.55442 62.55131,-104.3445 13.93134,-21.4649 18.02019,-70.93572 26.01155,-106.2436 25.65948,-113.36973 80.57206,-125.75022 138.5758,-140.51145 2.01237,-0.83498 4.03307,-1.62194 6.06197,-2.35727 9.98463,-3.61895 20.16402,-5.98755 30.49398,-6.67563 3.2592,3.42688 -9.21751,4.47972 -8.22988,10.5354 23.35722,5.63599 32.09861,4.82044 64.59821,30.38467 33.99809,26.74301 60.10781,79.89555 64.85044,158.53607 3.15979,52.39398 22.34045,59.00972 30.72291,67.83516 19.16682,20.17987 41.13496,31.14332 57.33034,68.6569 14.83126,34.35361 14.60816,64.72777 14.08989,113.61963 -1.34162,23.75773 -15.89649,35.44491 -17.21641,18.37845 -0.045,-76.31145 -25.28188,-100.73116 -65.92926,-139.17279 -3.33859,-2.64763 -4.01025,-0.0499 -2.67042,3.05375 22.07743,18.34329 43.76242,43.50431 55.87255,75.39604 13.80056,36.34331 13.59964,69.89325 -16.52998,118.5465 -14.06504,22.71221 -32.94752,44.18061 -41.5108,53.90829 -2.67526,5.82708 4.84247,7.52955 22.63417,8.37257 20.78596,0.98482 28.06812,4.587 23.84366,15.67024 -3.44452,4.00586 -3.81998,4.09166 -20.92046,4.78187 -13.44162,0.54256 -18.49921,1.0867 -21.70894,2.49219 -6.54888,2.86777 -1.65018,11.98003 -9.56396,12.53395 -24.77631,1.73451 -22.7591,-3.36154 -38.67031,-8.586 -12.79258,-4.20051 -27.71301,-5.43868 -36.78051,-0.97717 -28.76677,14.15432 -30.31608,3.56731 -28.6171,-10.08134 1.10155,-8.84935 -24.23869,-11.91671 -35.2755,-11.27115 -10.85846,0.63511 -41.87937,3.48894 -37.15361,14.60682 7.12338,16.75908 -18.74852,11.68102 -22.59436,9.68552 -17.8193,-9.24573 -40.4619,-10.72983 -55.39651,0.66648 -11.67956,8.91243 -23.17009,6.53044 -29.4148,-1.2014 z m 144.32753,-38.42327 c 27.65881,2.71934 49.7774,14.79494 75.64401,10.25799 26.16808,-6.7586 27.24668,-16.62279 48.80236,-12.56453 20.84433,4.03723 18.855,-22.51514 32.84392,-37.64394 31.35054,-50.60823 43.5911,-90.21741 10.94673,-148.90188 -22.93733,-41.23421 -59.12411,-52.27306 -91.81341,-71.37311 -20.07968,-11.73234 -12.277,-15.77874 7.74072,-27.55157 28.8601,-16.97322 31.86078,-32.50222 21.60572,-54.68854 -7.75377,-16.77486 -19.48078,-23.59549 -19.92844,-38.60155 -2.31272,-77.52086 -19.50675,-124.59399 -59.4366,-121.34511 -43.00644,3.4992 -42.89422,80.94119 -42.70418,101.58748 11.9193,3.52019 38.86609,25.38467 39.83731,34.46754 -0.0304,5.79688 -0.84607,6.58256 -13.33177,12.84902 -6.18466,3.10402 -12.42813,6.95517 -13.87455,8.55811 -3.63636,4.02997 -11.30601,6.29878 -17.41724,5.15229 -2.80761,-0.52672 -9.75523,-3.50994 -15.43894,-6.62937 -5.68381,-3.11943 -12.89895,-6.24796 -16.03367,-6.95229 -8.79403,-1.97591 -15.24654,-7.5649 -15.24654,-13.20626 0,-3.83609 1.28349,-5.77911 7.37943,-11.17114 10.10742,-8.37475 25.36475,-16.19884 36.55707,-22.9184 -2.32228,-46.38008 -15.27487,-88.86063 -49.79989,-91.74496 -17.40819,-1.45433 -59.94515,2.30021 -59.69147,107.3787 0.0832,34.61777 -19.59671,40.06751 -21.10375,58.40224 -2.63916,32.10872 14.5524,49.09471 33.66075,54.4492 8.36953,2.33248 7.98203,8.85549 3.14619,13.62793 -31.40908,30.99739 -67.11514,41.9904 -87.70196,111.99184 -18.80744,60.77905 -0.34713,85.10812 32.79522,110.11693 46.64628,35.1987 18.45132,39.4265 38.69495,41.73013 4.28248,0.48733 18.64438,-2.35613 25.60213,-0.42303 12.0702,3.35355 10.06019,7.91738 38.53622,9.76367 27.67534,1.79434 52.44299,-16.31682 69.72968,-14.61739 z m -78.9866,-387.88104 c -8.56812,-7.71787 -10.31658,-30.07622 -3.11055,-39.77456 3.12596,-4.20714 11.5611,-3.69828 13.38839,-0.43293 -7.78717,5.9088 -4.48748,27.15421 5.01868,4.23206 4.69933,10.89828 3.40156,26.83153 -0.28618,33.4333 -4.13743,7.27836 -8.86374,8.07881 -15.01034,2.54213 z m 97.66989,-11.33064 c -3.75982,-8.53064 -3.20883,-23.30865 -1.11627,-29.92764 2.13876,-6.76491 4.07153,-9.73891 10.28745,-11.18281 3.84191,-0.89243 6.77782,2.008 6.77782,2.008 -5.63524,6.93575 -9.43745,24.80276 5.93064,3.41362 3.14855,2.98759 3.89521,20.05701 -3.681,35.17323 -7.57621,15.11622 -14.43882,9.04625 -18.19864,0.5156 z m -29.66635,44.71522 c 15.32446,-10.35795 23.25421,-10.76763 11.37899,-22.92641 -15.73693,-14.04675 -19.11915,-17.30003 -35.00102,-6.99102 -11.85037,7.69217 -17.73783,9.98349 -17.73783,15.02239 3.59723,9.33489 12.84925,7.60304 21.41321,12.91061 11.33513,7.15562 13.20548,7.34169 19.94665,1.98443 z" style="opacity:1;fill:#333333" sodipodi:nodetypes="sscscssssccsccccssssccccsscscsssssssssssscccssssssccscssssccssscscssssssscccszsscczzccsccc"/>
  </g>
</svg>
