<?xml version="1.0" encoding="UTF-8" standalone="no"?>
<!-- Created with Inkscape (http://www.inkscape.org/) -->

<svg
   xmlns:dc="http://purl.org/dc/elements/1.1/"
   xmlns:cc="http://creativecommons.org/ns#"
   xmlns:rdf="http://www.w3.org/1999/02/22-rdf-syntax-ns#"
   xmlns:svg="http://www.w3.org/2000/svg"
   xmlns="http://www.w3.org/2000/svg"
   xmlns:sodipodi="http://sodipodi.sourceforge.net/DTD/sodipodi-0.dtd"
   xmlns:inkscape="http://www.inkscape.org/namespaces/inkscape"
   id="svg2"
   version="1.1"
   inkscape:version="0.91 r13725"
   width="610"
   height="766.55597"
   viewBox="0 0 610 766.55597"
   sodipodi:docname="tick_insect_silhouette.svg"
   inkscape:export-filename="/media/sdb1/_GRAFIKA/2017_OCAL/Tick/tick_insect_silhouette.png"
   inkscape:export-xdpi="85"
   inkscape:export-ydpi="85">
  <title
     id="title7462">Simple tick (Ixodes ricinus) silhouette</title>
  <metadata
     id="metadata8">
    <rdf:RDF>
      <cc:Work
         rdf:about="">
        <dc:format>image/svg+xml</dc:format>
        <dc:type
           rdf:resource="http://purl.org/dc/dcmitype/StillImage" />
        <dc:title>Simple tick (Ixodes ricinus) silhouette</dc:title>
        <dc:source>https://pixabay.com/en/tick-tick-plage-sting-insect-plage-1465065/</dc:source>
        <dc:creator>
          <cc:Agent>
            <dc:title>Elionas</dc:title>
          </cc:Agent>
        </dc:creator>
        <dc:rights>
          <cc:Agent>
            <dc:title>Elionas</dc:title>
          </cc:Agent>
        </dc:rights>
        <dc:publisher>
          <cc:Agent>
            <dc:title>Elionas</dc:title>
          </cc:Agent>
        </dc:publisher>
        <cc:license
           rdf:resource="http://creativecommons.org/publicdomain/zero/1.0/" />
        <dc:subject>
          <rdf:Bag>
            <rdf:li>tick</rdf:li>
            <rdf:li>sting</rdf:li>
            <rdf:li>insect</rdf:li>
            <rdf:li>ban</rdf:li>
            <rdf:li>protection</rdf:li>
            <rdf:li>silhouette</rdf:li>
            <rdf:li>animal</rdf:li>
            <rdf:li>borreliosis</rdf:li>
            <rdf:li>disease</rdf:li>
          </rdf:Bag>
        </dc:subject>
        <dc:description>Simple tick (Ixodes ricinus) silhouette, vectorized form Pixabay image licensed under Public Domain: https://pixabay.com/en/tick-tick-plage-sting-insect-plage-1465065/</dc:description>
      </cc:Work>
      <cc:License
         rdf:about="http://creativecommons.org/publicdomain/zero/1.0/">
        <cc:permits
           rdf:resource="http://creativecommons.org/ns#Reproduction" />
        <cc:permits
           rdf:resource="http://creativecommons.org/ns#Distribution" />
        <cc:permits
           rdf:resource="http://creativecommons.org/ns#DerivativeWorks" />
      </cc:License>
    </rdf:RDF>
  </metadata>
  <defs
     id="defs6" />
  <sodipodi:namedview
     pagecolor="#ffffff"
     bordercolor="#666666"
     borderopacity="1"
     objecttolerance="10"
     gridtolerance="10"
     guidetolerance="10"
     inkscape:pageopacity="0"
     inkscape:pageshadow="2"
     inkscape:window-width="1920"
     inkscape:window-height="1125"
     id="namedview4"
     showgrid="false"
     inkscape:zoom="0.69532167"
     inkscape:cx="403.7961"
     inkscape:cy="278.44887"
     inkscape:window-x="0"
     inkscape:window-y="0"
     inkscape:window-maximized="1"
     inkscape:current-layer="g7464"
     fit-margin-top="5"
     fit-margin-right="5"
     fit-margin-bottom="5"
     fit-margin-left="5" />
  <g
     id="g7464"
     transform="translate(-556.3935,-741.53329)">
    <path
       style="fill:#010101"
       d="m 892.68016,1502.6664 c -0.76685,-0.324 -1.78336,-1.5284 -2.25887,-2.6764 -0.79066,-1.9088 -0.72844,-2.2332 0.7275,-3.7932 0.87561,-0.9382 2.66237,-2.2548 3.97055,-2.9258 2.85,-1.4619 3.70321,-2.4107 4.29768,-4.7792 0.39376,-1.569 -0.19011,-2.4668 -4.78087,-7.3521 -11.2462,-11.9675 -38.34876,-49.7157 -45.13983,-62.8703 -1.704,-3.3008 -4.67396,-7.9637 -6.59985,-10.3619 -1.92589,-2.3982 -3.85662,-5.0989 -4.29051,-6.0014 -0.43389,-0.9026 -1.90235,-4.0416 -3.26324,-6.9756 -1.36088,-2.934 -4.1058,-8.7854 -6.09981,-13.0031 -1.99401,-4.2177 -5.1412,-11.2693 -6.99375,-15.6704 -4.91247,-11.6704 -7.29748,-16.1461 -11.19304,-21.005 -1.91128,-2.3839 -4.15523,-5.6846 -4.98654,-7.335 -1.72251,-3.4196 -9.20873,-22.198 -12.22852,-30.674 -5.01054,-14.0635 -7.57739,-20.3293 -9.8098,-23.9461 -3.63214,-5.8845 -4.57958,-12.4482 -4.09935,-28.3996 0.20978,-6.9684 0.86767,-16.6208 1.46197,-21.4501 0.81537,-6.6256 0.90639,-9.4075 0.37089,-11.336 -1.08763,-3.9168 -0.85701,-10.5056 0.65804,-18.8002 l 1.37514,-7.5285 -1.34694,-7.0157 c -0.74082,-3.8586 -1.69645,-7.4368 -2.12361,-7.9515 -1.37604,-1.658 -4.1963,-1.0972 -6.51556,1.2957 -2.82096,2.9105 -5.58162,10.1341 -8.50106,22.2443 -2.56459,10.6382 -4.2239,14.5277 -8.1165,19.0252 -2.12866,2.4595 -3.27119,5.0828 -6.78141,15.5703 -6.41234,19.158 -13.89605,35.0343 -18.20211,38.6148 -13.59631,11.3051 -40.75282,17.3582 -55.85458,12.4499 -4.96172,-1.6127 -17.86684,-8.6295 -25.58726,-13.9125 -2.88701,-1.9755 -5.58125,-3.4811 -5.9872,-3.3458 -0.40596,0.1353 -1.51228,1.5734 -2.45848,3.1959 -2.33874,4.0101 -4.26618,4.2034 -8.47753,0.8502 -1.74187,-1.3869 -3.289,-2.6041 -3.43808,-2.7048 -0.80916,-0.5467 2.59959,-6.0002 5.15826,-8.2525 3.36841,-2.965 3.29337,-2.9494 7.72173,-1.606 1.80037,0.5462 4.70216,0.9931 6.44841,0.9931 1.79532,0 5.58868,0.8459 8.72945,1.9466 3.05494,1.0707 7.3352,2.4584 9.51167,3.0838 2.17648,0.6254 5.87289,1.9966 8.21426,3.0471 5.0823,2.2803 5.16216,2.2696 21.16975,-2.8278 17.96108,-5.7194 16.02296,-4.6272 19.03495,-10.7266 1.45147,-2.9394 4.65967,-8.2358 7.12934,-11.7698 13.22812,-18.9293 15.99278,-24.2547 17.70236,-34.0989 1.81814,-10.4693 8.1543,-23.5379 18.49193,-38.1404 2.67502,-3.7786 5.56331,-8.642 6.4184,-10.8076 1.79277,-4.5401 2.82243,-6.2321 6.35462,-10.4423 2.82438,-3.3665 3.01777,-4.8395 1.98614,-15.1295 -0.65433,-6.5267 -1.39189,-7.2174 -6.7068,-6.2812 -2.86321,0.5043 -5.23766,0.5083 -8.04624,0.014 -7.15308,-1.26 -11.62553,1.174 -26.02274,14.1621 -6.5224,5.8841 -10.28274,8.7397 -13.6511,10.3668 -2.55693,1.2352 -4.986,2.2457 -5.39792,2.2457 -0.41193,0 -2.67093,1.2474 -5.02,2.772 -7.82336,5.0775 -10.33947,6.3828 -16.99855,8.8183 -9.06885,3.3169 -17.44945,5.0486 -24.5153,5.0659 l -5.90204,0.015 -9.76835,-4.5577 c -5.37258,-2.5066 -10.81858,-4.9637 -12.10222,-5.4601 -4.51204,-1.7448 -14.94623,-8.3585 -18.84389,-11.9441 -3.4898,-3.2104 -4.51007,-4.8095 -8.93492,-14.0033 -3.56189,-7.4009 -5.37434,-12.1012 -6.31637,-16.3805 -0.72662,-3.3008 -3.01008,-12.753 -5.07438,-21.005 -2.65894,-10.629 -3.86321,-16.8506 -4.13036,-21.3384 l -0.37711,-6.3348 -4.66777,-0.018 c -6.25,-0.024 -9.00214,-1.4361 -9.00214,-4.6196 0,-3.7227 2.78275,-5.533 7.22634,-4.701 1.90053,0.3559 3.71806,1.7483 8.18969,6.2743 5.72474,5.7943 5.78209,5.8867 14.75915,23.7784 4.95665,9.8788 10.31082,21.5623 11.89817,25.9633 l 2.88608,8.0019 12.9601,13.5095 c 7.12805,7.4301 13.94392,14.1175 15.14636,14.8606 2.18567,1.3508 2.18729,1.3508 6.1015,0.032 2.15339,-0.7254 8.25212,-2.1157 13.55274,-3.0894 9.50655,-1.7464 23.16936,-5.4949 26.56546,-7.2884 0.95871,-0.5063 3.69358,-2.9202 6.07748,-5.3643 2.3839,-2.444 6.07227,-5.6369 8.19637,-7.0953 3.90796,-2.6831 15.16104,-8.5967 26.1502,-13.7421 4.05228,-1.8973 7.61409,-4.227 10.94758,-7.1606 5.45418,-4.7998 9.12068,-6.3341 15.13672,-6.3341 4.97734,0 5.58479,-1.0626 5.58479,-9.7697 0,-5.2978 -0.23215,-7.0378 -1.04787,-7.8535 -0.57632,-0.5763 -1.13956,-1.0479 -1.25163,-1.0479 -0.11208,0 -3.12826,0.9003 -6.70263,2.0005 -7.67406,2.3622 -11.36208,2.4982 -16.33721,0.6021 -2.69262,-1.0262 -4.46519,-1.2898 -6.66825,-0.9917 -2.55701,0.346 -14.3424,5.3221 -21.00498,8.8688 -5.46371,2.9085 -7.78445,3.8537 -12.9984,5.2937 -7.40614,2.0454 -12.87075,2.0168 -19.50592,-0.1023 -3.51249,-1.1218 -8.63175,-1.9704 -16.0038,-2.6527 -24.56028,-2.2734 -32.37113,-5.0128 -38.64692,-13.5542 -1.53502,-2.0892 -9.27659,-10.4001 -17.20349,-18.4687 -7.9269,-8.0686 -15.34132,-16.1705 -16.47648,-18.0042 -1.13517,-1.8338 -2.70699,-5.7347 -3.49293,-8.6688 -0.78594,-2.934 -2.33382,-7.6977 -3.43972,-10.5859 -2.14296,-5.5967 -7.37049,-26.3349 -8.59348,-34.09133 -0.40479,-2.56728 -1.33997,-6.61824 -2.07817,-9.00214 -0.7382,-2.38389 -1.60133,-5.53464 -1.91805,-7.00166 -0.31673,-1.46701 -2.08673,-8.56473 -3.93335,-15.7727 -1.84662,-7.20798 -3.68378,-15.73122 -4.08259,-18.94054 -0.79396,-6.38924 -0.73907,-6.24681 -5.42027,-14.06633 -7.97492,-13.32139 -8.29338,-21.68099 -0.59363,-15.58268 3.20981,2.54222 4.91086,6.59202 6.30773,15.01721 1.02608,6.1888 1.36728,7.05182 4.74534,12.00285 2.15571,3.15952 5.92882,10.52541 9.25391,18.06555 7.62723,17.29592 21.2503,55.45427 22.09833,61.89767 0.19712,1.4977 0.50728,3.7032 0.68925,4.9012 0.21156,1.3929 1.62265,3.6259 3.91389,6.1937 1.97068,2.2086 6.23217,7.6499 9.46998,12.0919 6.84084,9.3848 15.82445,20.2224 18.2232,21.9839 0.91688,0.6733 3.46749,1.5421 5.66801,1.9308 2.52919,0.4467 8.10699,2.6676 15.16319,6.0375 14.35158,6.8541 17.53957,7.9312 23.47363,7.9312 3.89962,0 5.78402,-0.4201 10.49137,-2.3393 3.58874,-1.4631 8.3256,-2.7365 12.64637,-3.3997 3.79962,-0.5832 12.42176,-2.3857 19.16032,-4.0055 10.04095,-2.4136 13.24202,-3.4848 17.73849,-5.9358 3.60642,-1.9659 6.30538,-2.9908 7.87594,-2.9908 3.09836,0 10.42738,1.5692 15.41732,3.3009 2.16625,0.7518 4.87225,1.3669 6.01334,1.3669 2.41661,0 7.05206,-2.9069 7.05206,-4.4223 0,-0.95 -4.67713,-8.3975 -8.99002,-14.3151 -1.35483,-1.8589 -1.87104,-3.5883 -2.28896,-7.6685 -0.39973,-3.9026 -1.33244,-7.1697 -3.59805,-12.6033 -8.14506,-19.5344 -14.38532,-34.93126 -15.13457,-37.34223 -0.45589,-1.46701 -3.04127,-8.42582 -5.74529,-15.46403 -5.00847,-13.03636 -6.89243,-19.43465 -6.91004,-23.46786 -0.0159,-3.63682 1.43104,-7.43119 3.78593,-9.92811 1.9925,-2.11266 2.45852,-2.29704 5.0637,-2.0034 4.00123,0.451 8.80106,4.09478 13.64668,10.35985 2.19578,2.83901 11.10612,16.26447 19.80075,29.83435 16.89644,26.37063 21.04144,31.88253 21.04144,27.98013 0,-1.7279 -2.18882,-5.5034 -16.91045,-29.16878 -7.80665,-12.54937 -15.65261,-25.51768 -17.43546,-28.81847 -1.78286,-3.30078 -4.53669,-7.94868 -6.11963,-10.32866 -3.7073,-5.57401 -3.79266,-7.73467 -0.42246,-10.69375 2.38463,-2.09374 2.58782,-2.14497 7.02864,-1.77267 8.46192,0.70941 8.98912,1.11197 37.98243,29.00214 14.5355,13.98246 28.1812,27.38965 30.32377,29.79375 2.14258,2.40411 5.09588,5.1747 6.56289,6.15688 4.54495,3.04286 5.73183,4.38136 7.67589,8.65636 1.79416,3.9453 6.93484,10.2532 9.45517,11.6021 1.34645,0.7206 6.43252,-1.5692 9.11396,-4.103 1.34559,-1.2716 1.49475,-1.8333 1.03371,-3.8934 -0.29627,-1.3241 -0.5538,-4.6579 -0.5722,-7.4086 -0.0353,-5.29348 0.80512,-7.64793 5.60813,-15.70743 1.67106,-2.8041 2.18872,-4.76709 3.07713,-11.66944 1.32278,-10.27639 4.86889,-24.37334 7.87773,-31.3165 1.2491,-2.88236 4.00702,-7.88454 6.12873,-11.11595 l 3.85764,-5.87529 -0.14003,-6.66825 c -0.24052,-11.45739 -1.56917,-19.23987 -5.16576,-30.25894 -0.9867,-3.02291 -1.60578,-6.49527 -1.60578,-9.00654 0,-2.24782 -0.26486,-5.01055 -0.58861,-6.1394 -0.32381,-1.12885 -3.20549,-5.44716 -6.40385,-9.59623 -3.19836,-4.14908 -6.11578,-8.40605 -6.48314,-9.45994 -0.36742,-1.0539 -1.19621,-2.19887 -1.84183,-2.54439 -1.33632,-0.71517 -8.03418,-10.36717 -11.34429,-16.34767 -2.815,-5.08603 -4.03103,-6.41597 -9.32075,-10.19408 -2.36955,-1.69241 -6.69038,-5.13219 -9.60184,-7.64396 -3.67885,-3.17382 -5.61912,-4.42755 -6.3609,-4.11017 -2.81325,1.20369 -3.70214,0.70286 -4.11559,-2.31887 -0.44428,-3.24709 0.37348,-2.41182 -13.28898,-13.57366 -15.14,-12.36896 -21.29061,-17.74004 -24.40484,-21.31176 -5.98757,-6.86718 -7.01,-7.8074 -10.78758,-9.9202 -7.91858,-4.42887 -13.46491,-11.69046 -13.47928,-17.64787 -0.0101,-4.18885 1.29168,-4.9516 6.1487,-3.6027 3.17021,0.88044 5.55831,4.28685 8.49673,12.11983 2.53988,6.7706 5.00182,9.66702 10.15047,11.94182 8.24309,3.64201 22.18667,10.75181 24.38293,12.43282 1.30528,0.99906 4.53146,3.01675 7.16929,4.48376 17.20422,9.56802 28.6738,17.17208 36.91275,24.47219 3.43569,3.04421 7.83113,6.65166 9.76752,8.01654 7.32541,5.16322 13.77133,15.12281 23.11002,35.70732 3.2395,7.14058 6.9119,14.37492 8.16087,16.07632 1.24889,1.70139 2.92129,5.02443 3.71634,7.38452 1.92306,5.70864 4.15306,20.8294 4.23341,28.705 0.11816,11.59145 -0.79726,31.85815 -1.57124,34.78655 -0.99004,3.74572 -4.67518,10.99616 -12.31399,24.22745 -8.994,15.57864 -10.33872,19.95789 -8.06258,26.25671 1.46642,4.05803 1.32198,7.06451 -0.61268,12.75251 -0.92802,2.7285 -1.66706,6.424 -1.66706,8.3359 0,4.0985 1.09279,5.3819 6.81135,8 4.4886,2.0549 5.37214,1.7901 8.20308,-2.4594 3.53237,-5.3024 6.35004,-7.788 10.04672,-8.8626 1.91058,-0.5555 4.98344,-2.0258 6.82855,-3.2675 1.84504,-1.2416 5.12928,-3.3355 7.2982,-4.6531 4.0797,-2.4782 21.9116,-9.27778 32.00579,-12.2042 3.16835,-0.91854 6.86903,-2.23553 8.22375,-2.92665 2.71951,-1.38737 15.41246,-14.56811 22.24154,-23.09624 2.40411,-3.00229 5.73596,-6.5771 7.40416,-7.94403 1.66811,-1.36692 3.28341,-2.96147 3.58941,-3.54343 1.0597,-2.01499 -1.9868,-18.40172 -5.6599,-30.4437 l -1.662,-5.44878 -16.47464,-8.25557 c -18.63075,-9.33601 -22.13865,-12.01123 -26.04758,-19.86482 -2.2566,-4.53379 -2.51506,-6.3064 -1.46874,-10.07255 0.68082,-2.45052 5.08147,-5.99144 7.44623,-5.99144 0.64328,0 2.26107,1.42533 3.59505,3.16741 2.17265,2.83737 2.3775,3.44536 1.96567,5.83472 -1.08966,6.32217 -1.00471,6.55882 2.67163,7.43953 13.10078,3.13847 17.84737,4.51978 24.5879,7.15537 9.56058,3.73825 15.20318,7.27132 20.27918,12.69754 3.5175,3.76019 4.1134,4.81407 5.3572,9.47417 1.5306,5.73454 2.7706,17.8616 2.7814,27.20173 0.01,6.49819 -2.4401,18.43858 -4.8327,23.57605 -1.6547,3.55279 -14.2205,15.21321 -21.24252,19.71193 -2.70891,1.73546 -7.77591,4.98492 -11.26007,7.22103 -3.48416,2.23611 -8.04985,5.64973 -10.14601,7.58583 -4.56502,4.2165 -8.14527,5.6795 -20.52794,8.3881 -18.63535,4.0765 -18.9863,4.2757 -24.77501,14.0636 -4.18639,7.0786 -4.46166,8.1694 -2.57007,10.1829 1.82983,1.9478 10.04531,6.3404 11.85834,6.3404 0.72724,0 2.95964,-0.7496 4.96098,-1.6658 2.00127,-0.9162 5.54585,-1.8652 7.87687,-2.1089 3.18075,-0.3324 6.24455,-1.3953 12.27898,-4.2597 7.67108,-3.6413 27.72657,-12.3257 33.38012,-14.4541 1.46701,-0.5524 5.96803,-1.2304 10.00233,-1.5069 4.0343,-0.2764 15.5871,-2.0293 25.6728,-3.8953 15.6363,-2.893 19.762,-3.4215 28.0066,-3.5881 l 9.669,-0.1954 4.0009,2.4412 c 2.4831,1.515 6.7838,3.205 11.3361,4.4548 9.3332,2.5621 15.8606,5.2329 22.2923,9.121 6.9168,4.1814 9.8344,7.0537 20.2072,19.8938 2.1087,2.6103 2.7451,10.4437 2.8039,34.5129 0.061,24.8177 0.045,24.7062 3.5688,25.5857 2.9019,0.7242 6.1408,3.0206 6.1408,4.3538 0,2.9625 -6.9858,5.5286 -11.515,4.2296 -2.1826,-0.6259 -4.2695,-3.4004 -7.4853,-9.9515 -1.5884,-3.2357 -3.7137,-12.3328 -6.0115,-25.7307 -0.5876,-3.4259 -1.7681,-8.4796 -2.6235,-11.2302 -0.8553,-2.7507 -1.7673,-6.5784 -2.0266,-8.5061 -0.2593,-1.9277 -0.9682,-4.0849 -1.5753,-4.7938 -1.4801,-1.7281 -31.2827,-22.0964 -33.6252,-22.9807 -1.4258,-0.5383 -2.8715,-0.4093 -6.3348,0.5652 -3.8606,1.0862 -7.7474,1.3174 -27.8263,1.6551 l -23.3388,0.3926 -5.0012,2.1913 c -2.7507,1.2053 -5.9695,2.6209 -7.153,3.1459 -2.9348,1.3017 -11.45957,3.3933 -17.51955,4.2984 -5.98281,0.8935 -17.48614,4.1303 -21.67267,6.0982 -5.25978,2.4724 -7.76351,7.0327 -5.47923,9.9798 1.28043,1.652 10.10766,7.866 12.73082,8.9621 1.30651,0.5458 3.66033,0.9998 5.23084,1.0088 3.69361,0.021 7.86406,0.9854 12.87579,2.9775 2.91902,1.1602 6.38658,1.7915 12.6697,2.3067 24.5462,2.0127 41.9166,7.7141 51.1246,16.7803 2.1066,2.0741 6.9149,5.6601 10.6852,7.9688 13.3389,8.168 30.1953,19.6758 34.0553,23.2494 2.1509,1.9913 5.3011,5.5922 7.0005,8.0019 1.6994,2.4097 6.288,8.2822 10.1968,13.05 11.4899,14.015 20.8441,27.4939 22.968,33.096 1.0244,2.7022 3.0436,7.9137 4.487,11.5813 4.2114,10.701 4.6821,14.1675 4.7806,35.2101 0.096,20.4752 0.1115,20.5478 4.0681,18.6611 1.8359,-0.8755 2.3985,-0.8902 4.0012,-0.1052 1.0257,0.5025 2.4746,1.7374 3.2196,2.7442 l 1.3548,1.8306 -1.8902,1.9729 c -2.5973,2.711 -5.6625,4.0349 -9.3421,4.0349 -2.823,0 -3.436,-0.3117 -6.7166,-3.4142 -2.879,-2.7229 -4.0069,-4.4445 -5.5701,-8.502 -2.7894,-7.2406 -5.002,-15.4044 -7.7041,-28.4267 -1.2937,-6.2348 -2.6809,-12.921 -3.0825,-14.8583 -0.5377,-2.5939 -1.611,-4.6149 -4.0724,-7.6685 -4.3802,-5.434 -8.7119,-12.8124 -15.6061,-26.5828 -3.0972,-6.1863 -6.7538,-12.4917 -8.1257,-14.0119 -1.372,-1.5203 -4.895,-4.3146 -7.8291,-6.2096 -2.934,-1.8951 -8.7265,-6.4254 -12.8722,-10.0674 -4.1457,-3.6421 -8.4968,-7.3069 -9.669,-8.144 -1.1722,-0.8372 -5.132,-4.4139 -8.7995,-7.9484 -7.6684,-7.3902 -11.3012,-9.9114 -15.2222,-10.5646 -5.8109,-0.968 -11.8931,-3.3117 -25.4541,-9.8086 -14.926,-7.1508 -19.1595,-8.3887 -21.02016,-6.1466 -0.86767,1.0455 -0.73237,1.332 1.35952,2.8785 1.27774,0.9446 4.15594,3.5299 6.39594,5.7452 2.24,2.2152 6.3723,6.0782 9.1828,8.5842 8.0283,7.1588 24.236,25.976 32.5467,37.7869 6.7232,9.5547 16.6154,28.818 23.1142,45.0107 8.1007,20.1838 13.6831,48.6818 12.4685,63.6509 -1.7307,21.3303 -12.4274,47.9625 -26.9288,67.0467 -5.7966,7.6284 -16.3368,17.7654 -27.1164,26.079 -5.8395,4.5037 -25.4437,15.127 -35.6751,19.3321 -5.95554,2.4477 -19.2723,5.8502 -29.6737,7.5818 -20.96331,3.4901 -37.44789,2.1705 -57.77084,-4.6244 -13.65471,-4.5654 -21.16876,-8.8893 -34.24479,-19.7059 -16.71337,-13.8254 -40.28891,-41.0575 -47.62433,-55.0109 -1.25073,-2.3791 -3.11287,-5.5606 -4.1381,-7.0701 -1.02523,-1.5095 -4.71544,-8.5054 -8.20047,-15.5464 -3.48502,-7.0411 -6.97361,-13.8329 -7.75242,-15.0931 -2.72801,-4.414 -3.05942,-3.2542 -2.82277,9.8784 0.28439,15.7816 0.46165,16.9467 3.28521,21.5924 2.22133,3.6549 15.56299,30.1533 17.41448,34.5876 0.4594,1.1003 1.57496,3.222 2.47901,4.715 0.90406,1.4929 2.0983,4.8753 2.65386,7.5164 1.30204,6.1896 1.67487,6.8853 14.8026,27.6187 16.06318,25.3694 17.14664,27.4188 19.56654,37.0099 0.39997,1.5853 2.03435,4.4595 3.69561,6.4991 4.73993,5.8193 7.26359,10.3606 22.6235,40.7104 15.46467,30.5568 14.93901,29.1961 16.08289,41.6365 0.35228,3.8312 0.21685,4.5981 -1.16648,6.6069 -2.86435,4.1593 -7.09922,6.1227 -10.29444,4.7728 z M 783.69364,1033.178 c 2.14833,-4.0266 2.33121,-4.8457 2.57551,-11.5365 0.2553,-6.9918 0.20117,-7.3276 -1.85421,-11.5027 -1.51683,-3.0811 -2.4835,-4.3006 -3.40904,-4.3006 -0.71053,0 -1.29193,0.2251 -1.292,0.5001 -5.7e-4,2.2081 -2.9209,17.7461 -3.74419,19.9215 -1.32063,3.4895 -0.81593,9.5189 0.90243,10.7807 2.47086,1.8144 4.36486,0.742 6.8215,-3.8625 z m 49.36638,-28.0066 c 1.52491,-1.5249 1.62575,-2.2092 0.60629,-4.1141 -2.32805,-4.34998 -32.61388,-12.60627 -32.61388,-8.89092 0,2.86396 8.22746,9.29202 15.96078,12.47002 5.75147,2.3635 13.94508,2.6367 16.04681,0.535 z"
       id="path7466"
       inkscape:connector-curvature="0" />
  </g>
</svg>
